<mxfile host="app.diagrams.net" modified="2023-05-01T06:11:10.494Z" agent="Mozilla/5.0 (Windows NT 10.0; Win64; x64) AppleWebKit/537.36 (KHTML, like Gecko) Chrome/112.0.0.0 Safari/537.36 Edg/112.0.1722.64" etag="7g5mIpuTeCr1XQoSXRbU" version="21.2.1" type="device">
  <diagram name="observer-pattern" id="SkuLwvq8i3rjhzninliI">
    <mxGraphModel dx="538" dy="452" grid="1" gridSize="10" guides="1" tooltips="1" connect="1" arrows="1" fold="1" page="1" pageScale="1" pageWidth="850" pageHeight="1100" math="0" shadow="0">
      <root>
        <mxCell id="0" />
        <mxCell id="1" parent="0" />
        <mxCell id="2fsUzLdBCQUzBPqohIyC-1" value="Step 1:" style="text;html=1;align=center;verticalAlign=middle;resizable=0;points=[];autosize=1;strokeColor=none;fillColor=none;" vertex="1" parent="1">
          <mxGeometry x="70" y="58" width="60" height="30" as="geometry" />
        </mxCell>
        <mxCell id="2fsUzLdBCQUzBPqohIyC-2" value="Subject" style="rounded=1;whiteSpace=wrap;html=1;" vertex="1" parent="1">
          <mxGeometry x="80" y="100" width="120" height="60" as="geometry" />
        </mxCell>
        <mxCell id="2fsUzLdBCQUzBPqohIyC-4" value="register" style="edgeStyle=orthogonalEdgeStyle;rounded=0;orthogonalLoop=1;jettySize=auto;html=1;" edge="1" parent="1" source="2fsUzLdBCQUzBPqohIyC-3" target="2fsUzLdBCQUzBPqohIyC-2">
          <mxGeometry relative="1" as="geometry" />
        </mxCell>
        <mxCell id="2fsUzLdBCQUzBPqohIyC-3" value="Observer" style="rounded=1;whiteSpace=wrap;html=1;" vertex="1" parent="1">
          <mxGeometry x="280" y="100" width="120" height="60" as="geometry" />
        </mxCell>
        <mxCell id="2fsUzLdBCQUzBPqohIyC-6" value="register" style="edgeStyle=orthogonalEdgeStyle;rounded=0;orthogonalLoop=1;jettySize=auto;html=1;entryX=0.75;entryY=1;entryDx=0;entryDy=0;" edge="1" parent="1" source="2fsUzLdBCQUzBPqohIyC-5" target="2fsUzLdBCQUzBPqohIyC-2">
          <mxGeometry relative="1" as="geometry" />
        </mxCell>
        <mxCell id="2fsUzLdBCQUzBPqohIyC-5" value="Observer 1" style="rounded=1;whiteSpace=wrap;html=1;" vertex="1" parent="1">
          <mxGeometry x="280" y="180" width="120" height="60" as="geometry" />
        </mxCell>
        <mxCell id="2fsUzLdBCQUzBPqohIyC-7" value="Step 2" style="text;html=1;align=center;verticalAlign=middle;resizable=0;points=[];autosize=1;strokeColor=none;fillColor=none;" vertex="1" parent="1">
          <mxGeometry x="70" y="260" width="60" height="30" as="geometry" />
        </mxCell>
        <mxCell id="2fsUzLdBCQUzBPqohIyC-11" value="notification" style="edgeStyle=orthogonalEdgeStyle;rounded=0;orthogonalLoop=1;jettySize=auto;html=1;" edge="1" parent="1" source="2fsUzLdBCQUzBPqohIyC-8" target="2fsUzLdBCQUzBPqohIyC-9">
          <mxGeometry relative="1" as="geometry" />
        </mxCell>
        <mxCell id="2fsUzLdBCQUzBPqohIyC-12" value="notification" style="edgeStyle=orthogonalEdgeStyle;rounded=0;orthogonalLoop=1;jettySize=auto;html=1;entryX=0;entryY=0.5;entryDx=0;entryDy=0;" edge="1" parent="1" source="2fsUzLdBCQUzBPqohIyC-8" target="2fsUzLdBCQUzBPqohIyC-10">
          <mxGeometry relative="1" as="geometry">
            <Array as="points">
              <mxPoint x="160" y="410" />
            </Array>
          </mxGeometry>
        </mxCell>
        <mxCell id="2fsUzLdBCQUzBPqohIyC-8" value="Subject" style="rounded=1;whiteSpace=wrap;html=1;" vertex="1" parent="1">
          <mxGeometry x="80" y="290" width="120" height="60" as="geometry" />
        </mxCell>
        <mxCell id="2fsUzLdBCQUzBPqohIyC-9" value="Observer" style="rounded=1;whiteSpace=wrap;html=1;" vertex="1" parent="1">
          <mxGeometry x="280" y="290" width="120" height="60" as="geometry" />
        </mxCell>
        <mxCell id="2fsUzLdBCQUzBPqohIyC-10" value="Observer 1" style="rounded=1;whiteSpace=wrap;html=1;" vertex="1" parent="1">
          <mxGeometry x="280" y="380" width="120" height="60" as="geometry" />
        </mxCell>
      </root>
    </mxGraphModel>
  </diagram>
</mxfile>
